# xmcd
#
# Track frame offsets: 
#        150
#        18536
#        34001
#        50696
#        71133
#        87706
#        101851
#        119987
#        143978
#        161637
#        181267
#        202242
#        221294
#        235501
#        253209
#        270617
#        291488
#
# Disc length: 4080 seconds
#
# Revision: 0
# Processed by: cddbd v1.5.2PL0 Copyright (c) Steve Scherf et al.
# Submitted via: ExactAudioCopy v1.2
#
DISCID=170fee11
DTITLE=Charlie Landsborough - Love, In A Song
DYEAR=2011
DGENRE=Country
TTITLE0=To Make You Feel My Love
TTITLE1=Don't It Make My Brown Eyes Blue
TTITLE2=Railway Hotel
TTITLE3=The Nearness Of You
TTITLE4=Sea Of Heartbreak
TTITLE5=I'll Be Faithful To You
TTITLE6=Miss You Nights
TTITLE7=I Only Have Eyes For You
TTITLE8=Happy Together
TTITLE9=Vincent
TTITLE10=Just The Way You Are
TTITLE11=The Very Thought Of You
TTITLE12=Please Help Me, I'm Falling
TTITLE13=The Wind Beneath My Wings
TTITLE14=And I Love Her
TTITLE15=I Don't Want To Talk About It
TTITLE16=I'll Have To Say I Love You In A Song
EXTD=
EXTT0=
EXTT1=
EXTT2=
EXTT3=
EXTT4=
EXTT5=
EXTT6=
EXTT7=
EXTT8=
EXTT9=
EXTT10=
EXTT11=
EXTT12=
EXTT13=
EXTT14=
EXTT15=
EXTT16=
PLAYORDER=
